<?xml version="1.0" encoding="UTF-8" standalone="no"?>
<!-- Generator: Adobe Illustrator 19.0.0, SVG Export Plug-In . SVG Version: 6.00 Build 0)  -->

<svg
   xmlns:dc="http://purl.org/dc/elements/1.1/"
   xmlns:cc="http://creativecommons.org/ns#"
   xmlns:rdf="http://www.w3.org/1999/02/22-rdf-syntax-ns#"
   xmlns:svg="http://www.w3.org/2000/svg"
   xmlns="http://www.w3.org/2000/svg"
   xmlns:sodipodi="http://sodipodi.sourceforge.net/DTD/sodipodi-0.dtd"
   xmlns:inkscape="http://www.inkscape.org/namespaces/inkscape"
   version="1.1"
   id="Capa_1"
   x="0px"
   y="0px"
   viewBox="0 0 512 512"
   style="enable-background:new 0 0 512 512;"
   xml:space="preserve"
   sodipodi:docname="bow-and-arrow.svg"
   inkscape:version="0.92.3 (2405546, 2018-03-11)"><metadata
   id="metadata126"><rdf:RDF><cc:Work
       rdf:about=""><dc:format>image/svg+xml</dc:format><dc:type
         rdf:resource="http://purl.org/dc/dcmitype/StillImage" /></cc:Work></rdf:RDF></metadata><defs
   id="defs124" /><sodipodi:namedview
   pagecolor="#ffffff"
   bordercolor="#666666"
   borderopacity="1"
   objecttolerance="10"
   gridtolerance="10"
   guidetolerance="10"
   inkscape:pageopacity="0"
   inkscape:pageshadow="2"
   inkscape:window-width="1920"
   inkscape:window-height="1001"
   id="namedview122"
   showgrid="false"
   inkscape:zoom="1.578125"
   inkscape:cx="256"
   inkscape:cy="256"
   inkscape:window-x="-9"
   inkscape:window-y="-9"
   inkscape:window-maximized="1"
   inkscape:current-layer="Capa_1" />
<path
   style="fill:#896748;"
   d="M351.565,420.857c-5.94,5.94-15.274,5.939-21.213,0L91.066,181.571  c-5.939-5.939-5.94-15.273,0-21.213s15.274-5.939,21.213,0l239.286,239.286C357.504,405.583,357.505,414.916,351.565,420.857z"
   id="path69" />
<path
   style="fill:#73553A;"
   d="M351.565,420.857c-5.94,5.94-15.274,5.939-21.213,0L210.709,301.214l21.213-21.213l119.643,119.643  C357.504,405.583,357.505,414.916,351.565,420.857z"
   id="path71" />
<path
   style="fill:#BF6015;"
   d="M430.562,435.155c-7.849-7.849-16.631-27.452-10.692-38.906  c47.094-87.822,30.972-194.312-39.456-264.74s-176.919-86.55-264.74-39.456c-11.455,5.939-30.903,0.002-38.751-7.847  c-17.607-17.607-46.032-17.607-63.64,0s-17.607,46.032,0,63.64c36.063,36.063,97.936,48.363,144.817,23.544  c52.608-28,116.46-18.455,158.674,23.759s51.759,106.066,23.759,158.674c-24.819,46.882-9.673,108.91,26.389,144.972  c17.607,17.607,46.032,17.607,63.64,0C448.169,481.187,448.169,452.762,430.562,435.155z"
   id="path73" />
<path
   style="fill:#994c10"
   d="m 678.32437,503.86431 c -17.607,17.607 -46.032,17.607 -63.64,0 -36.063,-36.063 -51.208,-98.091 -26.389,-144.972 28,-52.608 18.455,-116.46 -23.759,-158.674 l 63.64,-63.64 c 70.428,70.428 86.55,176.919 39.456,264.74 -5.939,11.455 2.843,31.057 10.692,38.906 17.607,17.607 17.607,46.032 0,63.64 z"
   id="path75"
   inkscape:connector-curvature="0" />
<path
   style="fill:#994C0F;"
   d="M422.841,110.295L189.495,343.64c-5.94,5.94-15.273,5.94-21.213,0s-5.94-15.273,0-21.213  L401.627,89.082c5.94-5.94,15.273-5.94,21.213,0C428.781,95.022,428.781,104.355,422.841,110.295z"
   id="path77" />
<path
   style="fill:#713708;"
   d="M422.841,110.295L189.495,343.64c-5.94,5.94-15.273,5.94-21.213,0L422.841,89.082  C428.781,95.022,428.781,104.355,422.841,110.295z"
   id="path79" />
<path
   style="fill:#42F2D8;"
   d="M468.873,146.995l42.426-127.279c1.697-5.517-0.212-11.244-4.031-15.062  c-3.818-3.818-9.545-5.728-15.062-4.031L364.928,43.05c-10.393,3.606-13.575,16.97-5.727,24.819l84.853,84.853  C451.903,160.57,465.267,157.388,468.873,146.995z"
   id="path81" />
<g
   id="g87">
	<path
   style="fill:#00dab7"
   d="M 444.054,152.722 401.628,110.296 507.269,4.654 c 3.818,3.818 5.728,9.545 4.031,15.062 l -42.426,127.279 c -3.607,10.393 -16.971,13.575 -24.82,5.727 z"
   id="path83"
   inkscape:connector-curvature="0" />
	<path
   style="fill:#00dab7"
   d="m 214.314,391.793 -21.213,-63.64 c -0.637,-1.908 -2.121,-3.817 -3.818,-5.514 -1.91,-1.91 -4.243,-3.394 -5.514,-3.818 l -63.64,-21.213 c -5.517,-1.697 -11.456,-0.425 -15.487,3.606 L 19.79,386.067 c -7.849,7.849 -4.666,21.213 5.727,24.819 l 56.64,18.88 18.88,56.64 c 3.606,10.393 16.97,13.575 24.819,5.727 l 84.853,-84.853 c 4.03,-4.031 5.303,-9.97 3.605,-15.487 z"
   id="path85"
   inkscape:connector-curvature="0" />
</g>
<path
   style="fill:#00AD93;"
   d="M210.709,407.28l-84.853,84.853c-7.849,7.849-21.213,4.666-24.819-5.727l-18.88-56.64L189.283,322.64  c1.697,1.697,3.181,3.606,3.818,5.514l21.213,63.64C216.012,397.31,214.739,403.249,210.709,407.28z"
   id="path89" />
<g
   id="g91">
</g>
<g
   id="g93">
</g>
<g
   id="g95">
</g>
<g
   id="g97">
</g>
<g
   id="g99">
</g>
<g
   id="g101">
</g>
<g
   id="g103">
</g>
<g
   id="g105">
</g>
<g
   id="g107">
</g>
<g
   id="g109">
</g>
<g
   id="g111">
</g>
<g
   id="g113">
</g>
<g
   id="g115">
</g>
<g
   id="g117">
</g>
<g
   id="g119">
</g>
</svg>