<?xml version="1.0" encoding="iso-8859-1"?>
<!-- Generator: Adobe Illustrator 19.0.0, SVG Export Plug-In . SVG Version: 6.00 Build 0)  -->
<svg version="1.1" id="Capa_1" xmlns="http://www.w3.org/2000/svg" xmlns:xlink="http://www.w3.org/1999/xlink" x="0px" y="0px"
	 viewBox="0 0 512 512" style="enable-background:new 0 0 512 512;" xml:space="preserve">
<path style="fill:#896748;" d="M351.565,420.857c-5.94,5.94-15.274,5.939-21.213,0L91.066,181.571
	c-5.939-5.939-5.94-15.273,0-21.213s15.274-5.939,21.213,0l239.286,239.286C357.504,405.583,357.505,414.916,351.565,420.857z"/>
<path style="fill:#73553A;" d="M351.565,420.857c-5.94,5.94-15.274,5.939-21.213,0L210.709,301.214l21.213-21.213l119.643,119.643
	C357.504,405.583,357.505,414.916,351.565,420.857z"/>
<path style="fill:#BF6015;" d="M430.562,435.155c-7.849-7.849-16.631-27.452-10.692-38.906
	c47.094-87.822,30.972-194.312-39.456-264.74s-176.919-86.55-264.74-39.456c-11.455,5.939-30.903,0.002-38.751-7.847
	c-17.607-17.607-46.032-17.607-63.64,0s-17.607,46.032,0,63.64c36.063,36.063,97.936,48.363,144.817,23.544
	c52.608-28,116.46-18.455,158.674,23.759s51.759,106.066,23.759,158.674c-24.819,46.882-9.673,108.91,26.389,144.972
	c17.607,17.607,46.032,17.607,63.64,0C448.169,481.187,448.169,452.762,430.562,435.155z"/>
<path style="fill:#994C10;" d="M430.562,498.795c-17.607,17.607-46.032,17.607-63.64,0c-36.063-36.063-51.208-98.091-26.389-144.972
	c28-52.608,18.455-116.46-23.759-158.674l63.64-63.64c70.428,70.428,86.55,176.919,39.456,264.74
	c-5.939,11.455,2.843,31.057,10.692,38.906C448.169,452.762,448.169,481.187,430.562,498.795z"/>
<path style="fill:#994C0F;" d="M422.841,110.295L189.495,343.64c-5.94,5.94-15.273,5.94-21.213,0s-5.94-15.273,0-21.213
	L401.627,89.082c5.94-5.94,15.273-5.94,21.213,0C428.781,95.022,428.781,104.355,422.841,110.295z"/>
<path style="fill:#713708;" d="M422.841,110.295L189.495,343.64c-5.94,5.94-15.273,5.94-21.213,0L422.841,89.082
	C428.781,95.022,428.781,104.355,422.841,110.295z"/>
<path style="fill:#42F2D8;" d="M468.873,146.995l42.426-127.279c1.697-5.517-0.212-11.244-4.031-15.062
	c-3.818-3.818-9.545-5.728-15.062-4.031L364.928,43.05c-10.393,3.606-13.575,16.97-5.727,24.819l84.853,84.853
	C451.903,160.57,465.267,157.388,468.873,146.995z"/>
<g>
	<path style="fill:#00DAB7;" d="M444.054,152.722l-42.426-42.426L507.269,4.654c3.818,3.818,5.728,9.545,4.031,15.062
		l-42.426,127.279C465.267,157.388,451.903,160.57,444.054,152.722z"/>
	<path style="fill:#00DAB7;" d="M214.314,391.793l-21.213-63.64c-0.637-1.908-2.121-3.817-3.818-5.514
		c-1.91-1.91-4.243-3.394-5.514-3.818l-63.64-21.213c-5.517-1.697-11.456-0.425-15.487,3.606L19.79,386.067
		c-7.849,7.849-4.666,21.213,5.727,24.819l56.64,18.88l18.88,56.64c3.606,10.393,16.97,13.575,24.819,5.727l84.853-84.853
		C214.739,403.249,216.012,397.31,214.314,391.793z"/>
</g>
<path style="fill:#00AD93;" d="M210.709,407.28l-84.853,84.853c-7.849,7.849-21.213,4.666-24.819-5.727l-18.88-56.64L189.283,322.64
	c1.697,1.697,3.181,3.606,3.818,5.514l21.213,63.64C216.012,397.31,214.739,403.249,210.709,407.28z"/>
<g>
</g>
<g>
</g>
<g>
</g>
<g>
</g>
<g>
</g>
<g>
</g>
<g>
</g>
<g>
</g>
<g>
</g>
<g>
</g>
<g>
</g>
<g>
</g>
<g>
</g>
<g>
</g>
<g>
</g>
</svg>
